<svg xmlns="http://www.w3.org/2000/svg" width="287" height="66"><g fill="#FFF" fill-rule="evenodd"><path d="M34.067 35.753H20.255c-1.535 0-2.032-.94-2.032-2.224L18.215.819H13.36V37.99c0 1.56 1.353 2.59 2.35 2.59h18.357v-4.827Z"/><path d="M34.067 42.421v4.837H9.544c-1.68 0-2.842-1.252-2.842-2.872.016-1.9 0-43.569 0-43.569h4.835v38.599c0 1.693.739 3.005 2.81 3.005h19.72Z"/><path d="M0 .818h4.863v44.93c0 1.627.814 3.346 3.194 3.346h26.01v4.825H5.777C2.55 53.919 0 51.25 0 48.068V.818Z"/><path d="M20.035.818h4.861v26.383c0 .958.436 1.875 1.82 1.875h7.352v4.84H22.505c-1.78 0-2.47-1.126-2.47-2.412V.818Z"/><path d="M26.737 18.984h13.811c1.537 0 2.033.943 2.033 2.227l.006 32.705h4.855V16.748c0-1.558-1.352-2.59-2.35-2.59H26.736l.002 4.826Z"/><path d="M26.734 12.317V7.48H51.26c1.677 0 2.842 1.252 2.842 2.871-.018 1.9 0 43.568 0 43.568h-4.835V15.322c0-1.695-.74-3.005-2.808-3.005H26.734Z"/><path d="M60.802 53.919H55.94V8.989c0-1.625-.817-3.344-3.196-3.344h-26.01V.818h28.293c3.226 0 5.774 2.672 5.774 5.853V53.92Z"/><path d="M40.77 53.919h-4.863V27.54c0-.96-.439-1.877-1.818-1.877h-7.352V20.82h11.56c1.778 0 2.473 1.13 2.473 2.414V53.92ZM172.347 30.962c0-1.658 1.255-2.99 2.908-2.99h4.345v-4.885h-5.15c-3.916 0-7.01 3.168-7.01 7.068v23.76h4.911l-.004-22.953ZM96.022 53.913h4.907V22.999h-4.907zM195.301 26.394c6.332 0 11.476 5.143 11.476 11.455 0 6.315-5.144 11.457-11.476 11.457-6.328 0-11.47-5.142-11.47-11.457 0-6.312 5.142-11.455 11.47-11.455Zm27.878 0c6.332 0 11.481 5.143 11.481 11.455 0 6.315-5.15 11.457-11.481 11.457-6.328 0-11.48-5.142-11.48-11.457 0-6.312 5.152-11.455 11.48-11.455Zm27.881 0c6.328 0 11.474 5.143 11.474 11.455 0 6.315-5.146 11.457-11.474 11.457-6.334 0-11.477-5.142-11.477-11.457 0-6.312 5.143-11.455 11.477-11.455Zm-72.139 39.374h4.951v-16.22a16.323 16.323 0 0 0 11.43 4.643 16.368 16.368 0 0 0 13.938-7.763 16.376 16.376 0 0 0 13.939 7.763 16.368 16.368 0 0 0 13.939-7.763 16.37 16.37 0 0 0 13.942 7.763c9.044 0 16.373-7.315 16.373-16.342 0-9.026-7.329-16.343-16.373-16.343a16.366 16.366 0 0 0-13.942 7.768 16.365 16.365 0 0 0-13.94-7.768 16.377 16.377 0 0 0-13.938 7.768 16.369 16.369 0 0 0-13.939-7.768c-9.043 0-16.38 7.317-16.38 16.343v27.919ZM148.647 26.225c4.943 0 9.43 3.135 11.071 8.03h-22.16c1.64-4.895 6.144-8.03 11.089-8.03m0 27.796c7.53 0 13.965-5.062 15.736-12.341h-4.747a11.644 11.644 0 0 1-10.989 7.8c-6.026 0-11.035-4.53-11.623-10.678h27.823v-.953c0-8.916-7.27-16.17-16.2-16.17-8.938 0-16.21 7.254-16.21 16.17 0 8.915 7.272 16.172 16.21 16.172M121.623 53.914 133.913 23h-5.602l-9.89 24.881L108.531 23h-5.596l12.286 30.914zM269.862 53.913h4.913v-41.51h-4.913zM79.143 12.406v33.73c.016 1.678.987 2.988 2.906 2.988h12.062v4.787l-16.62-.002c-2.098 0-3.315-1.279-3.315-3.128V12.406h4.967ZM283.618 15.439c.437 0 .72-.166.72-.525 0-.318-.257-.518-.62-.518h-.908v1.043h.808Zm-1.37-1.514h1.53c.865 0 1.151.535 1.151.905 0 .565-.396.968-.98 1v.024c.296.1.512.4.798.861l.424.675h-.678l-.312-.541c-.44-.777-.605-.93-1.029-.93h-.342v1.471h-.562v-3.465Zm1.414-1.008a2.681 2.681 0 0 0-2.685 2.688 2.69 2.69 0 0 0 2.685 2.696 2.705 2.705 0 0 0 2.704-2.696 2.695 2.695 0 0 0-2.704-2.688Zm0 5.92a3.23 3.23 0 0 1-3.228-3.232 3.216 3.216 0 0 1 3.228-3.218 3.22 3.22 0 0 1 3.24 3.218 3.236 3.236 0 0 1-3.24 3.233ZM96.016 17.363h4.913v-4.956h-4.913z"/></g></svg>