<svg xmlns="http://www.w3.org/2000/svg" xml:space="preserve" id="Layer_1" x="0" y="0" style="enable-background:new 0 0 1680 403" version="1.1" viewBox="0 0 1680 403"><style>.st0{fill:#ec0f29}</style><g id="_x23_214e9eff"><path d="M152.2 24.1c24.3-4.9 49.1-6.4 73.8-6.1 18.1.6 36.4 1.7 53.8 7 16.6 5.8 32.9 14.4 44.6 27.9 12.9 14.8 18.6 34.2 21.6 53.2 1.5 10 2.5 20.1 2.5 30.3-16-.1-32.1-.1-48.1 0-.3-19.6-4.8-40.5-18.5-55.2-16.8-16.9-40.3-26-63.8-27.8-14.5-1.2-29 .6-43.2 3.5-17.2 3.7-34.4 9.7-48.4 20.5-12.8 10.2-24.2 23.5-28.7 39.6-4.1 15.2-3.2 32.5 5.5 45.9 9.4 14.2 24.6 23.5 40.2 29.6 26.4 10.1 54.1 15.6 81.4 22.6 11.5 2.7 22.5 7.9 32.2 14.7 6.4 4.8 12.7 11.2 13.8 19.6 1.8 15.1-1.2 31.1-9.8 43.8-8.5 12.9-21.1 22.5-34.4 30.1-23 13.3-50.1 18.9-76.5 16.6-15.2-1.3-30.5-4.2-44.5-10.5-12.9-5.6-24-16-28.9-29.4-7.1-19.3-8.3-40.1-8.9-60.5 16 0 32 .1 48 0-.7 15.8 1.1 32.9 10.7 46 7.3 10.4 20.3 14.8 32.4 15.8 13 .8 26.9-1.7 37.4-9.8 5.8-5.7 11.9-12.3 13-20.6.4-5.9-2.9-11.3-6.7-15.6-4.9-5.6-12-8.4-18.8-10.9-20.4-7.2-42-9.8-62.8-15.3-19.4-5.9-39.4-13.5-53.4-28.8-13.1-14.2-19.3-33.6-21.2-52.5-1.8-18.9 1.5-38.7 11.7-54.9 4.1-6.1 8.5-11.9 13.2-17.4C92 50.7 120.2 31 152.2 24.1zM1479 26.9c11.9-1.5 24-2.5 36-2.5 10.7 0 21.4-.2 32 .8 15.7 1.3 31.6 3.4 46.2 9.7 15.8 6.4 30.6 16.3 40.6 30.4 9.4 13.5 14.2 29.6 16.8 45.7 1.7 10.5 2.8 21.2 2.9 31.8h-48.2c-.2-19.2-4.8-39.5-17.8-54.2-14.4-14.9-34.2-23.9-54.5-27.4-20.4-3.6-41.3-.8-61.2 4.1-19.5 5.1-39.2 13.6-52.5 29.2-13.8 14.7-21.5 35.5-18.4 55.6 1.5 11.7 7.8 22.5 16.6 30.2 11.5 10.2 25.7 16.8 40.1 21.8 23.9 8.3 48.8 13.5 73.3 19.8 10.3 2.5 20.1 7.2 28.9 13 6.8 4.7 13.7 10.8 15.5 19.2 1.4 8.9.6 18-1.4 26.8-3.6 15.4-14 28.4-26.2 38-18.9 14.9-41.9 24.5-65.9 27.2-22.5 2.3-45.7-.3-66.9-8-14.7-5.3-28-16-33.6-30.9-7.4-19.6-8.1-40.8-9.1-61.5 16.1 0 32.1.1 48.2 0-.5 12.4.5 25.1 5.2 36.6 3.5 8.6 9.7 16.5 18.2 20.5 15.4 7.2 34 6.6 49.5-.2 7.4-3 12.9-9.1 17.2-15.6 2.6-4.1 4.4-9.2 3-14.1-1.7-6.5-6.6-11.6-11.7-15.7-8.2-5.3-17.7-8.1-27.1-10.6-11.5-3-23.2-5.1-34.8-7.6-13.1-2.6-25.8-6.6-38-11.8-16.9-7.1-32.3-19.2-40.4-35.9-13.2-26.9-15.3-60.4-1-87.3 8.4-14.4 19.7-27 32-38.2 16.8-14.9 36.6-26.9 58.2-33.3 9.3-2.9 18.9-4.3 28.3-5.6zM401 30.7h258.6c-3.2 13.6-6.4 27.2-9.4 40.8H442.5c-21.1 87.2-42.3 174.3-63.3 261.5H585c-2.7 13.2-5.6 26.4-8.1 39.7-51 .1-101.9-.4-152.9-.2-35.9-.6-71.9.3-107.8-.5 28.2-113.8 56.7-227.5 84.8-341.3zM793.9 31.5h44.9c-68.8 114.1-138 227.9-207 342h-47c19.2-32.2 39.1-63.9 58.5-95.9 50.2-82.1 100.5-164 150.6-246.1zM853 31.5c15.2-.1 30.4.1 45.5-.1 19.6 114 39 228 58.5 342h-42.5c-17-95.3-33.8-190.6-50.7-285.9-2.4 4.1-5.6 7.9-7.5 12.2 9.7 56.6 19.3 113.3 29.3 169.8H752.9c-1.8 3.6-4.1 7-5.8 10.6h139.1c5.7 31.1 11.5 62.1 17.4 93.1-15.2-.1-30.5 0-45.7 0-1.9-18.1-4-36.1-6.2-54.2-43.1.2-86.2-.1-129.3.1-10.6 18.1-21.8 36-32.5 54-15.1.1-30.2 0-45.3.1 42.9-70.2 85.7-140.5 128.6-210.8 26.5-43.5 53.3-87.1 79.8-130.9M823.9 154c-15.9 25.8-32.3 51.4-48.1 77.3 20.3.1 40.5 0 60.8 0-4.4-25.7-8.3-51.6-12.7-77.3zM1044 31.5h151c10.3.1 20.6-.3 30.9.3 18.9 1.7 38.4 3.3 55.9 11.2 16.7 9.5 33.3 20.8 44.3 37 5.3 7.5 7.1 16.7 9.6 25.3 3.1 10.9 5.1 22.3 4.1 33.6-.6 9.8-3.1 19.4-6 28.7-3.9 12-8.8 23.9-17 33.6-4.7 5.9-10.6 10.7-15.9 16-8.1 6-16.4 11.7-24.6 17.6 6.7 6.7 14.1 13.3 17.8 22.2 3.6 10.5 5.5 21.7 5.3 32.8-1.4 14.4-2.8 28.9-6.2 42.9-1.5 7.4-5.1 14.4-5.5 22 .6 6.3 3.1 12.2 4.4 18.5h-45c-3.5-9.8-7.7-19.8-6.6-30.4 1-11.7 2.8-23.4 4.5-35 2.3-12.9 2.3-26 1.7-39-.3-8.1-3.1-16.1-7.9-22.7-4.2-6-10.8-10.3-18-11.4 9.4-4.8 19.4-8.9 28-15.2 5.7-3.9 9.9-9.4 14.9-14.1 9.5-9.1 18.6-19.5 22.3-32.4 1.9-7.5 3.5-15.2 5.3-22.8 2.8-12.4 2.8-26.2-3.8-37.5-14.3-24.8-42.9-40.5-71.5-39.4h-133.4c-23.8 100-47.5 200-71.2 300-16.1 0-32.2-.1-48.2 0 26.7-113.8 54-227.7 80.8-341.8z" class="st0"/><path d="M137.9 79.9c21.7-11.7 46.4-18.4 71.1-17.3 12.3.6 24.8 1.9 36.6 5.7 9.8 3.1 19 8.7 25.7 16.6 5.5 5.9 11.3 12.2 13.2 20.3 2.5 10.2 3.5 20.8 4.3 31.2-16.4 0-32.8-.1-49.1 0-.1-8.6-2-17.3-6.6-24.6-3.3-5.2-8.3-9.5-14.1-11.5-12.6-4.6-26.7-6.2-39.7-2.6-7.9 2.1-14.9 7.5-18.7 14.8-4.1 9.2.7 20.4 8.6 25.9 11.2 8 24.8 11.7 37.9 15.4 23.6 6.9 47.8 11.6 70.7 20.8 6.6 2.5 12.6 6.3 18.3 10.5 13.8 10 26.8 23.1 30.9 40.2 4.7 22.2 5 46.1-3.1 67.6-9.9 23.6-26.2 44.9-47.5 59.2-10.6 7.2-22.7 11.6-34.6 16.1-30.1 11-62.4 17.7-94.5 14.9-23.6-1.7-47.6-4.6-69.3-14.6-12.7-5.9-23.6-14.9-33.3-24.9C29.8 329 17.5 311 13.2 290.5c-3.3-16.7-3.2-33.9-1.5-50.9 15.4.1 30.9 0 46.3 0-.1 7.8.3 15.5.5 23.3 1 13.2 2 26.6 6.4 39.2 5.8 13.9 15.6 26.6 29.1 33.8 4.7 2.5 9.6 4.5 14.7 6.1 34.7 10 73 10.8 106.8-2.8 15.5-6.3 30.4-14.6 42.5-26.3 15-14.6 23-35.5 24.2-56.2.1-9.3-2.3-18.8-8.1-26.2-6.7-8.8-16.7-14.2-26.8-17.9-24.6-9.4-50.3-14.9-75.5-22.3-16.3-4.5-32.3-11-46-21.1-9.8-7.3-17.9-17.8-19.6-30.2-3.7-23.8 10.6-48.2 31.7-59.1zM1492 70c14.3-1.8 28.9-1 43.1 1.3 11.5 2 23.1 5.1 32.8 11.8 5.9 3.9 9.8 9.9 13.9 15.6 4.2 6.2 7.1 13.3 7.9 20.7.9 7.8 2 15.5 3 23.2h-48.2c-.4-10.8-3.1-22.3-11.2-30-4.7-4.8-11.3-6.8-17.6-8.7-12.3-3.3-26.2-3.8-37.7 2.3-5.5 3.5-11 8-13.4 14.3-2.4 6.2-.1 13.2 3.3 18.5 5.6 7.1 14.2 10.9 22.4 14.3 19.4 7.2 39.7 11.6 59.7 17.1 17.3 5 35.4 9.5 50.3 20.3 13.9 9.6 26.5 22.5 31.2 39.1 2.8 11.8 3.6 24 3.3 36.1-.5 12.9-2.7 25.9-8.2 37.7-11.6 25-30.4 47.5-55.4 59.9-30.2 14.4-62.9 24.9-96.5 26.3-12.3.7-24.7-.5-36.9-1.9-18.9-2.2-38-5.4-55.4-13.5-9.4-4.3-17.9-10.2-25.4-17.2-16.7-14.9-31.6-33.1-37.6-55-4.8-18.4-4.6-37.7-2.9-56.5 15.4.1 30.7.1 46.1 0 .4 15 .7 30 3.1 44.8 1.2 7.2 2.5 14.5 5.9 21.1 3.8 7.7 8.4 15.1 14.6 21.1 8.7 9 20.5 14.3 32.5 17.4 21.9 5.4 44.8 7.8 67.3 4.8 22.7-2.9 44.5-11.4 63.4-24.2 12.6-8.6 23.5-20.3 29.6-34.4 4.9-11.4 8.3-23.7 7.9-36.2-.2-7.8-2.6-15.5-7.1-21.9-5.8-7.8-14.1-13.3-23-16.9-19.4-8.1-39.9-13-60.1-18.6-16.3-4.6-33.1-8.4-48.3-16.1-11.4-5.6-22.6-12.6-30.1-23-6-8.1-8.4-18.5-7.8-28.5 1-20.2 14-38.4 31.2-48.4 15.6-8.8 32.8-14.3 50.3-16.7zM447.4 92.7c1.3-4.5 1.9-9.3 3.6-13.7 65.5-.1 131 0 196.5 0-3.1 12.1-5.6 24.3-8.9 36.4-50.3-.3-100.6-.1-150.9-.1-4.1 14.8-8.1 29.6-12.4 44.4h144.3c-2.9 12.3-5.8 24.6-8.5 37H466.9c-.6 3.8-1.4 7.5-2.1 11.3h142.8c-3.1 11.7-6.7 23.2-9.8 34.9-47.8.3-95.7 0-143.5.2-3.5 15.6-7.1 31.1-10.3 46.7 50.6-.1 101.2 0 151.7-.1-2.7 11.6-5.6 23.2-8.4 34.8-65.3 0-130.7-.1-196 0C410 247.2 428.7 170 447.4 92.7zM1089.8 82.7c45.1.1 90.1 0 135.2 0 9.9.8 19.9 2.7 28.8 7.2 10 5.7 19 13.7 24.5 23.9 3.9 7 5.3 15.2 5 23.1.2 12.3-.6 25.1-5.7 36.5-3 6.9-8.1 12.6-12.7 18.4-6.2 7.4-12.6 14.9-20.7 20.2-9 5.4-19 8.9-29 12-36.1.3-72.3 0-108.4.2-1.4 3.5-2.9 7-4.6 10.4h91.9c10.2.8 21.1 2.3 29.3 8.9 6.4 6.5 12.7 14 14 23.4 1 7.9-.1 15.9-1.1 23.8-1.8 13.3-3.7 26.7-3.6 40.2-.1 14.3 1.6 28.5 4.6 42.5-17.8-.1-35.6.1-53.3-.1-2.8-12.2-5-24.7-4.1-37.3.9-11.8 2.1-23.6 4.6-35.1 2.4-7.4 1.2-15.8-3.6-22-3.8-4.1-9.5-5.8-14.9-5.8-23.9 0-47.7.1-71.6 0-8.8 33.4-17.7 66.8-26.4 100.2-15.9.1-31.8 0-47.7.1 23.2-96.8 46.4-193.8 69.5-290.7m26.9 100.8c21.8.1 43.6-.1 65.4.2 10.7-.4 21.8-2.9 30.6-9.3 6.2-5.1 12.2-11.3 13.9-19.5 1.2-6.9.1-14.2-3.1-20.4-5.2-6.3-13.5-8.9-20.9-11.8-3.9-1.9-8.3-1.3-12.5-1.3h-61c-4.1 20.6-8.2 41.4-12.4 62.1z" class="st0"/></g></svg>