<svg xmlns="http://www.w3.org/2000/svg" version="1.0" viewBox="0 0 233.576 56.006"><path fill="#0071CE" d="M135.474 29.804c0-5.531-2.367-10.418-10.374-10.418-4.108 0-7.372 1.17-9.141 2.196l1.297 4.437c1.629-1.022 4.228-1.864 6.681-1.864 4.054-.005 4.718 2.288 4.718 3.762v.355c-8.849-.014-14.442 3.043-14.442 9.27 0 3.804 2.84 7.371 7.804 7.371 3.028 0 5.588-1.222 7.116-3.152h.15s1.007 4.217 6.58 2.606c-.283-1.767-.389-3.628-.389-5.89v-8.673zm-6.601 5.84c0 .446-.037.91-.169 1.308-.51 1.703-2.267 3.129-4.455 3.129-1.846 0-3.295-1.045-3.295-3.235 0-3.35 3.699-4.271 7.919-4.248M0 11.86s5.78 23.647 6.699 27.478c1.082 4.477 3.02 6.132 8.614 5.03l3.613-14.664c.913-3.633 1.534-6.238 2.124-9.94h.1c.41 3.74 1 6.307 1.746 9.952 0 0 1.475 6.661 2.24 10.151.743 3.49 2.839 5.691 8.327 4.5l8.6-32.506H35.12L32.17 25.923c-.782 4.073-1.492 7.282-2.044 11.016h-.1c-.498-3.693-1.131-6.77-1.944-10.762l-3.058-14.316h-7.242l-3.264 13.95c-.93 4.26-1.8 7.675-2.347 11.29h-.095A411.879 411.879 0 0 0 9.937 25.29s-1.939-9.988-2.623-13.43M61.41 29.804c0-5.531-2.374-10.418-10.381-10.418-4.097 0-7.366 1.17-9.135 2.196l1.297 4.437c1.623-1.022 4.22-1.864 6.681-1.864 4.054-.005 4.718 2.288 4.718 3.762v.355c-8.849-.014-14.448 3.043-14.448 9.27 0 3.804 2.851 7.371 7.792 7.371 3.058 0 5.594-1.222 7.123-3.152h.154s1.014 4.217 6.582 2.606c-.286-1.767-.384-3.628-.384-5.89v-8.673zm-6.608 5.84c0 .446-.037.91-.163 1.308-.516 1.703-2.273 3.129-4.466 3.129-1.835 0-3.29-1.045-3.29-3.235 0-3.35 3.7-4.271 7.92-4.248M65.012 11.861v32.495h6.607V11.861zM155.753 11.86v23.976c0 3.31.621 5.617 1.958 7.031 1.174 1.24 3.095 2.047 5.382 2.047 1.964 0 3.885-.378 4.792-.707l-.08-5.161c-.678.157-1.454.292-2.52.292-2.255 0-3-1.429-3-4.4v-9.179h5.755V19.55h-5.754v-7.69M138.675 19.95v24.417h6.83V31.862c0-.673.044-1.254.15-1.792.51-2.637 2.51-4.306 5.393-4.306.805 0 1.351.089 1.958.184v-6.402a7.232 7.232 0 0 0-1.483-.14c-2.556 0-5.453 1.623-6.676 5.159h-.168V19.95M75.456 19.95v24.417h6.656V30.036c0-.673.074-1.36.312-1.981.54-1.452 1.883-3.132 4.039-3.132 2.68 0 3.945 2.261 3.945 5.525v13.919h6.639V29.864c0-.633.088-1.409.274-1.97.533-1.646 1.987-2.971 3.997-2.971 2.708 0 4.02 2.213 4.02 6.06v13.384h6.632V29.97c0-7.564-3.847-10.564-8.216-10.564-1.92 0-3.45.472-4.824 1.32-1.162.713-2.181 1.717-3.094 3.032h-.1c-1.051-2.629-3.519-4.352-6.742-4.352-4.134 0-6.012 2.087-7.117 3.85h-.1V19.95"/><path fill="#FFC220" d="M203.787 18.854c1.305 0 2.404-.681 2.547-1.557l1.294-14.658c0-1.451-1.709-2.639-3.841-2.639-2.145 0-3.842 1.188-3.842 2.64l1.305 14.657c.138.876 1.231 1.557 2.537 1.557M195.847 23.44c.647-1.145.61-2.416-.088-2.982l-12.081-8.448c-1.257-.733-3.138.14-4.214 1.99-1.074 1.846-.856 3.918.375 4.637l13.374 6.2c.856.321 1.976-.274 2.634-1.408M211.724 23.429c.684 1.133 1.804 1.729 2.637 1.425l13.375-6.218c1.242-.733 1.428-2.785.378-4.632-1.074-1.849-2.966-2.716-4.22-1.998l-12.084 8.44c-.67.575-.718 1.852-.072 2.994M203.787 37.163c1.305 0 2.404.681 2.547 1.557l1.294 14.658c0 1.451-1.709 2.628-3.841 2.628-2.145 0-3.842-1.177-3.842-2.628l1.305-14.658c.138-.876 1.231-1.557 2.537-1.557M211.724 32.59c.684-1.137 1.804-1.744 2.637-1.415l13.375 6.207c1.242.718 1.428 2.788.378 4.637-1.074 1.835-2.966 2.709-4.22 1.99l-12.084-8.45c-.67-.57-.718-1.842-.072-2.97M195.847 32.577c.647 1.142.61 2.41-.088 2.983l-12.081 8.436c-1.257.733-3.138-.143-4.214-1.978-1.074-1.846-.856-3.919.375-4.637l13.374-6.207c.856-.326 1.976.275 2.634 1.403M231.65 42.723h.166c.226 0 .317.071.343.252.049.2.075.335.123.392h.43c-.038-.043-.086-.152-.112-.404-.049-.217-.16-.34-.318-.383v-.04c.218-.05.344-.195.344-.376a.494.494 0 0 0-.15-.354c-.142-.07-.28-.124-.583-.124-.27 0-.467.023-.624.06v1.62h.38v-.643zm.011-.739.195-.026c.229 0 .352.106.352.255 0 .166-.166.243-.378.243h-.169v-.472zm.243-1.1c-.939 0-1.683.734-1.683 1.633 0 .921.744 1.654 1.683 1.654.95 0 1.672-.733 1.672-1.654 0-.9-.721-1.632-1.672-1.632m0 .33c.722 0 1.257.583 1.257 1.302 0 .724-.535 1.325-1.257 1.314-.721 0-1.268-.59-1.268-1.314 0-.719.547-1.303 1.257-1.303"/></svg>