<svg xmlns="http://www.w3.org/2000/svg" width="2666.667" height="2666.667" version="1.0" viewBox="0 0 2000 2000"><path d="M755 538.6c-41.4 5.2-65 11.9-95.5 27.3-25.2 12.8-44 26.5-65.1 47.6-38.4 38.4-62 84.5-71.6 140.1-3 17.5-3.3 59.6-.5 77.2 11.7 73.7 51.3 135.9 112.3 176.5 15.8 10.5 37 21.2 53.9 27.3 2.8.9 5.2 1.9 5.3 2 .4.3-7.9 15.5-45.8 83.9-21 38-48.2 87.1-55 99.5-2.5 4.7-15.8 28.7-29.5 53.5-13.7 24.7-27.8 50.4-31.5 57-26.2 47.7-27.5 49.8-33.1 55.5-19.4 19.3-48.6 19.9-66.1 1.2-11.7-12.5-15.6-31.4-10-48.2 1-3 14.3-28.2 29.7-56 15.3-27.8 30-54.3 32.5-59 2.6-4.7 10.8-19.6 18.4-33.2 15-27.2 15.7-29.4 11.3-35.9-4.1-6-14.4-7.2-19-2.2-1.4 1.6-9.3 15.6-19.5 34.3-1.9 3.6-4.3 7.8-5.2 9.5-1.9 3.1-36 65-55.8 101-19.1 34.7-20.7 39.7-20 60.3.4 10.4 1 14.1 3.2 20.7 8.7 25.5 28.7 42.6 55.6 47.2 24.7 4.4 53.6-7.7 69.6-29 2.7-3.7 18.5-31.3 35.1-61.4 16.6-30.1 40.4-73.3 52.9-95.8 25.9-46.9 30.2-54.6 59.6-108 33.1-60 48-87 48.3-87.3.1-.1 5.4.6 11.6 1.7 34 6 65.9 5.2 100.9-2.5 35.5-7.9 67.8-22.8 98-45.2 14.2-10.6 37.9-34.1 48.4-48 48-63.7 64.4-142.3 45.5-218.3-11.2-45.1-34.6-86.5-67.7-119.4-13.5-13.5-23.1-21.3-40.1-32.6-31-20.5-64.4-33.2-104.1-39.5-9.2-1.5-49.4-2.7-57-1.8zm54 27.5c56.6 7.9 109.4 37.9 145.3 82.4 11.3 14 18.6 25.5 27.6 43.5 11.1 22.3 17.4 42.2 21.7 68.5 2.6 15.4 2.6 50.5.1 66.2-11.6 73-53.7 133.8-116.9 169.1-23.8 13.3-58 23.9-87.3 27.2-13.3 1.5-38.6 1.2-52.7-.5-67-8.4-127.3-46.5-164.8-104.1-29.5-45.4-41.9-101.5-34.5-155.9 13.8-100.7 91.1-179.6 192-196.1 22.5-3.6 45.3-3.7 69.5-.3z"/><path d="M766.5 596.9c-9.3 2.4-13.2 11.1-8.5 18.8 3.3 5.5 5 6 23 6.7 25.9.9 46.4 5.9 68.6 16.6 49.2 23.8 82.9 67.1 94.6 121.6 2 9.5 2.3 13.6 2.3 32.4 0 18.6-.3 23.1-2.4 33.7-2.4 12.1-2.4 12.1-.4 15.9 5 9.7 18.3 9.4 22.7-.6 2.7-6.1 5.7-25.9 6.2-42 3.4-92-58.8-174.8-148.4-197.5-17.7-4.4-50.1-7.6-57.7-5.6zM668.5 628.1c-75.7 49.4-108.1 142-79.9 227.9 13.7 41.6 40.2 76.6 76.8 101.1 66.9 45 153.5 45.1 220.6.1 13.2-8.8 27.3-21 29-25.1 1.5-3.8.8-9.1-1.7-12.5-2.4-3.3-8.8-5.9-12.4-5.1-1.6.4-7.3 4.4-12.7 8.9-23.9 20-48.5 32.1-79.2 38.8-9.3 2-13.2 2.3-33.5 2.2-20 0-24.3-.3-33.3-2.2-23.8-5.2-47.1-15.2-65.2-27.9-10.3-7.3-32.2-28.4-38.8-37.4-26.8-36.8-38.5-81.7-32.8-124.9 1.9-13.6 2.9-18.1 7.3-32 11.3-35.7 35.8-67.5 69-89.9 8.4-5.6 10-7.2 11.2-10.7 1.8-5.2.9-8.8-3.4-13.1-2.9-2.9-4-3.3-8.3-3.3-4.3 0-6 .7-12.7 5.1z"/><path d="M663.5 727.4c-1.7.7-4 2.6-5 4.2-1.8 2.7-2 6.6-3.2 57.4-.8 30-1.1 55.9-.8 57.7.3 1.9 2 4.4 4.1 6.2 7 6.2 18 3.1 20.3-5.7.6-2 1.5-27.8 2.1-57.4 1-48.5 1-53.9-.5-56.7-3-5.9-10.9-8.5-17-5.7zM724.9 729.5c-5.6 3-5.6 3.3-7 63.7-1.1 52.1-1.1 55.8.5 58.3 2.3 3.5 7.4 6.5 11.1 6.5 1.7 0 4.4-.9 6.2-2 6.7-4 6.4-1.5 7.7-61.7.8-32.3.9-56.1.4-58-1.4-5-6-8.3-11.6-8.3-2.6.1-5.9.7-7.3 1.5zM817 730.7c-2.3.9-6.1 4.6-7 6.9-.5 1.2-1.4 27.1-2.1 57.7-1.2 52.1-1.1 55.7.5 58.2 2.3 3.5 7.4 6.5 11.1 6.5 1.7 0 4.4-.9 6.2-2 6.7-4 6.4-1.4 7.8-62.2 1.4-60.1 1.4-59.3-4-63.6-2.7-2.1-8.8-2.9-12.5-1.5zM878.4 732.6c-6.6 3.4-6.4 1.8-7.8 62.7-1.1 44.4-1.1 55.8-.1 58.3 1.9 4.6 6.4 7.4 11.9 7.4 3.9 0 5.2-.6 8.4-3.4l3.7-3.4.6-18.9c.4-10.3 1-36.2 1.4-57.4l.8-38.6-3.5-3.8c-2.7-3-4.2-3.8-7.8-4.1-2.9-.2-5.6.2-7.6 1.2zM1135 623.5c-7.4 2.4-33.4 10.6-57.8 18.3-31.9 10-45 14.6-46.7 16.2-1.4 1.3-3 4.1-3.6 6.3-1.9 7.2 4.5 15.7 11.9 15.7 1.1 0 14.3-3.9 29.4-8.6 15-4.7 30.7-9.6 34.8-10.9 4.1-1.2 17.1-5.3 28.8-9l21.2-6.7 77.8 24.7c42.7 13.5 79.2 25.2 81 25.9l3.3 1.2-6.3 2.1c-3.5 1.2-43.4 14.4-88.8 29.3-45.4 15-96.8 31.9-114.2 37.6-17.4 5.8-32.8 11.4-34.2 12.5-8.4 6.6-3 21.9 7.7 21.9 2.7 0 18.7-4.8 43.7-13 21.7-7.2 72.4-23.9 112.5-37.2 40.2-13.2 84-27.7 97.5-32.1l24.4-8 8.1 2.6c4.4 1.4 16.6 5.3 27 8.6 10.5 3.3 35.2 11.1 55 17.4 19.8 6.3 58.3 18.6 85.5 27.2 55.6 17.6 57.1 18.1 55 18.9-.8.3-9.4 3.4-19 7-9.6 3.5-29.2 10.8-43.5 16.1-36.1 13.4-54.9 20.4-117.5 43.5-30 11.1-66.4 24.6-81 30-14.6 5.4-40.7 15.1-58 21.5-17.3 6.4-40.7 15-52 19.2-11.3 4.2-30.6 11.3-42.9 15.9-12.3 4.6-22.9 8.4-23.4 8.4s-24.1-8.6-52.4-19c-35.6-13.2-52.6-19-55.4-19-7.8 0-13.9 9.7-10.9 17.1 1.8 4.4 6.1 7.1 17.5 11.2 5.5 1.9 17.9 6.5 27.5 10.1 9.6 3.5 27.2 10.1 39 14.5l21.5 7.9.5 55.2.5 55.2 3.7 3.4c3 2.7 4.6 3.4 7.8 3.4 4.9 0 9.4-2.2 11.2-5.3 1-1.7 1.4-15.1 1.8-57.1l.5-54.8 7-2.5c3.9-1.4 20.3-7.5 36.5-13.5s39.6-14.7 52-19.3c12.4-4.6 34.7-12.9 49.5-18.4 14.9-5.5 55.6-20.5 90.5-33.5 34.9-12.9 81.3-30 103-38.1 21.7-8.1 48.5-18 59.5-22 11-4.1 27.4-10.1 36.4-13.4 9.1-3.4 17-6.1 17.8-6.1 1.9 0 2 467.2.1 468.8-.7.5-10.3 4.3-21.3 8.3-23.1 8.5-25.5 10.1-26.2 17.5-.6 6.6 2.4 11.3 8.6 13.3 4.2 1.3 4.6 1.2 19.9-4.4 45-16.5 41.3-14.8 43.8-19.6 1.2-2.4 1.4-37.9 1.4-254.9 0-235.9-.1-252.4-1.7-255.1-2.2-3.8-4-4.5-28.8-12.4-11.5-3.6-34.5-10.9-51-16.2-16.5-5.2-39.9-12.6-52-16.5-12.1-3.8-36.6-11.6-54.5-17.3-17.9-5.7-46.2-14.7-63-20-86.2-27.4-98.4-31.3-178.5-56.7-22.5-7.1-44.4-14.1-48.5-15.4-4.1-1.3-9.3-2.4-11.5-2.3-2.2 0-10.1 2-17.5 4.4zM568.5 1025.4c-4 1.7-4.3 2.2-12.3 16.7-3.7 6.8-13.4 24.4-21.5 39-15.6 28.3-16.5 30.6-13.2 36.9 2.9 5.7 12 7.8 17.8 4.2 2.8-1.6 4.9-5.2 40.3-69.3 7.2-13.2 8.2-18.3 4.3-23.3-4.1-5.2-9.6-6.7-15.4-4.2zM1142.2 1167.4l-3.7 3.4-.3 133.6c-.1 73.5-.6 133.6-1.1 133.6-.4 0-5.7-1.8-11.7-4.1-6-2.3-18.1-6.7-26.9-9.9-8.8-3.2-39.2-14.5-67.5-25-28.3-10.5-60-22.3-70.5-26.1-10.4-3.9-23-8.6-28-10.4-4.9-1.8-27.4-10.2-50-18.5-22.5-8.3-52.9-19.6-67.5-25-14.6-5.4-40.7-15.1-58-21.5-44.9-16.6-68.2-25.3-70.2-26-1.7-.7-1.8-3.6-1.8-42v-41.2l-2.3-3.4c-4.1-6.1-11.3-7.7-17.5-3.9-6.3 3.8-6.3 4-6 56 .3 45.5.4 46.9 2.4 49.7 1.1 1.5 3.6 3.6 5.5 4.5 1.9.9 34 13 71.4 26.8 37.4 13.8 81.7 30.2 98.5 36.5 37.4 13.9 60.2 22.3 96 35.5 66.3 24.5 98.8 36.5 144.5 53.5 52.5 19.6 71.8 26.5 73.6 26.5 1 0 13.4-4.3 27.6-9.6 14.2-5.2 37.7-14 52.3-19.4 32.7-12.2 130.3-48.3 150-55.5 88.3-32.4 125.7-46.8 128-49 2.1-2.2 2.5-3.5 2.5-8.6 0-5.6-.3-6.3-3.2-8.9-5.3-4.8-8.7-4.8-21-.2-6 2.2-23.2 8.6-38.3 14.2-15.1 5.6-35.8 13.2-46 17-10.2 3.8-30.9 11.5-46 17-15.1 5.6-53.4 19.8-85 31.5-94.7 35.1-106.7 39.5-107.9 39.5-.8 0-1.1-34.1-1.1-132.5 0-145.6.4-136.7-6-140-1.6-.8-4.7-1.5-7-1.5-3.2 0-4.8.7-7.8 3.4z"/></svg>